PathFileType	4	(X/Y/Z)	Patient4_TMGait_0pt5_01_right_39.trc.trc
DataRate	CameraRate	NumFrames	NumMarkers	Units	OrigDataRate	OrigDataStartFrame	OrigNumFrames
74.866310160428	74.866310160428	4	33	mm	74.866310160428	71	       141
Frame#	Time	L.ASIS			Sacral			L.Shoulder			Chest			R.Shoulder			Neck			R.ASIS			R.Thigh.Superior			R.Thigh.Lateral			R.Thigh.Inferior			R.Patella			L.Thigh.Superior			L.Thigh.Lateral			L.Thigh.Inferior			L.Patella			L.Shank.Superior			L.Shank.Lateral			L.Shank.Inferior			R.Shank.Superior			R.Shank.Lateral			R.Shank.Inferior			R.Heel			R.Midfoot.Superior			R.Midfoot.Lateral			R.Toe			L.Heel			L.Midfoot.Lateral			L.Midfoot.Superior			L.Toe			L.Elbow			L.Wrist			R.Elbow			R.Wrist			
		X1	Y1	Z1	X2	Y2	Z2	X3	Y3	Z3	X4	Y4	Z4	X5	Y5	Z5	X6	Y6	Z6	X7	Y7	Z7	X8	Y8	Z8	X9	Y9	Z9	X10	Y10	Z10	X11	Y11	Z11	X12	Y12	Z12	X13	Y13	Z13	X14	Y14	Z14	X15	Y15	Z15	X16	Y16	Z16	X17	Y17	Z17	X18	Y18	Z18	X19	Y19	Z19	X20	Y20	Z20	X21	Y21	Z21	X22	Y22	Z22	X23	Y23	Z23	X24	Y24	Z24	X25	Y25	Z25	X26	Y26	Z26	X27	Y27	Z27	X28	Y28	Z28	X29	Y29	Z29	X30	Y30	Z30	X31	Y31	Z31	X32	Y32	Z32	X33	Y33	Z33	

71	52.255000000000	778.792748310098	955.769477583989	360.728588863222	579.013814024529	1000.964132102693	536.749609829693	723.188560678008	1434.729426738413	352.755949811947	844.594619629506	1362.239614314015	498.478196506139	780.353109645608	1427.189775889330	684.403268794124	739.100520561745	1491.265320043880	505.669363903449	812.248471994725	938.333246671837	635.353314498376	812.041167610168	726.605139779106	608.182985472930	710.374922760046	631.546143636078	670.989773164532	769.476142794023	567.731845323968	589.634316582643	751.497441084256	483.067557498032	593.342446719875	855.291925408498	769.071958001560	390.583090173548	801.141877199793	639.390095146746	317.321774526270	905.497007500212	580.492319094632	375.028117708072	930.217870117543	512.870331206765	372.919411985528	911.878034014980	440.245327260990	365.091830602637	839.608746557593	312.595246155956	317.539736658687	923.130758188331	211.351182810098	373.321159535036	716.127394598681	397.963482080840	599.097953480840	635.625693866479	299.218544830836	657.978109790881	670.957658627741	203.010512861209	592.277858096000	526.640797384035	42.197383377505	553.230653566511	697.426438502795	96.611546121145	594.291638855875	607.824239719041	35.552997512737	630.495099548824	815.945760761636	44.965729891079	624.901671357806	830.715147038956	39.053369345059	416.037022184610	903.094112600654	38.972264467126	334.246185374595	979.218946307178	110.606314238990	352.967935029924	1109.902756472839	72.209486257042	324.655421217209	601.079334327070	1098.991738857646	254.458844014538	580.321033520466	839.755115039652	260.154931318833	915.908026392964	1110.810499762007	790.645794623563	1170.427106933134	1106.055220387115	758.394845053255	
72	52.268357142857	779.715086196457	954.585310998346	359.102563394878	579.572394341999	999.739213702270	534.710977715026	722.326997593654	1433.262640833760	349.889300636070	844.095318789475	1361.671659369170	495.821065054596	779.495425332528	1426.842883087630	681.637890106965	738.170428857362	1490.278752990706	502.567638971814	812.853354357351	937.358866631419	633.729920540544	812.308997240841	725.322618207602	606.574851380164	710.335169919819	630.518842029314	669.379970105750	768.980037006785	566.355595700274	587.879950140768	750.256809200223	481.374695850436	591.395175112761	856.452274341276	767.582030824345	389.606598684323	801.469783611414	638.026595232450	316.967293300853	905.616471416060	579.168023767456	374.978701923915	929.238907673253	510.606422452750	373.339083630554	910.323613032414	437.622737861092	365.434814601020	836.431034939326	310.850780788039	317.881359020949	918.090137287255	208.543391766463	374.468484475592	714.041153088881	396.548447586551	597.577282652307	632.537617327134	298.919434660310	657.140266408221	666.055146933091	202.167252038090	591.427464313087	519.958245121972	42.224196125239	553.257315689597	690.771690428689	96.473682828729	594.135649776379	601.122251168917	35.526084122872	630.490207978585	809.271222776305	44.600395196542	624.922481948089	822.259541303434	38.522781203678	416.757161349043	894.874894789851	37.656276712662	335.081390854503	972.680563927821	107.136628249774	354.918551735218	1102.713968892965	65.798001555568	326.593018726190	600.331995063586	1097.252945755216	252.754712408439	580.323952006800	837.953881851419	258.043434758801	912.867816793270	1109.091238236810	788.170418441541	1167.172049336079	1105.059999979757	755.544405578002	
73	52.281714285714	780.694324155102	953.558537454823	357.384083473594	580.132540184755	998.628141611713	532.505108141205	721.704495307841	1431.840995371704	346.888995180481	843.754512969199	1361.164107628411	493.111069940848	778.722944079707	1426.612987661626	678.769019310324	737.407091649313	1489.388513681576	499.317558098123	813.501998730727	936.407054245853	631.953968970891	812.835890947469	724.100985556237	604.796790483404	710.608090275969	629.475907488952	667.538815404687	768.923819864660	564.981966525372	585.962244535276	749.484824589354	479.580104459717	589.296082623651	857.516330225042	766.109564437039	388.487782112775	801.643172580814	636.871199465500	316.434252532665	905.532494643442	577.946000872472	374.864191715364	927.976443164412	508.494872647673	373.690845444478	908.603462171892	435.210147894761	365.606717709702	833.311484612426	309.242679959897	317.996994053995	913.168205721523	206.004442440862	375.428750795468	712.292819733962	395.109430013786	595.929657384489	629.658015950867	298.734057349905	656.160650027677	661.303582583453	201.383626273292	590.541879807577	513.316814332081	42.408641987803	553.303539166786	684.213501171267	96.382346360297	594.012456653276	594.469925367984	35.565008663836	630.471861336575	802.646019227868	44.112525986461	624.955411795116	814.113811875327	38.074898674937	417.262709741172	886.988652124202	36.617869116083	335.724908656396	966.257129817286	104.125201104143	356.718516876395	1095.720252895943	60.209008264865	328.422258929306	600.589076772116	1095.219660892763	250.803849287789	581.612756134743	835.848701871571	255.644255772513	909.244484868870	1107.168418576784	785.623781901698	1163.379605410601	1102.753467054270	752.793150385174	
74	52.295071428571	781.666538903134	952.755359730215	355.545652932353	580.657242359525	997.698218892028	530.154119131794	721.312018062864	1430.531661471263	343.796407791712	843.573122738159	1360.752895018366	490.363979379767	778.083315401248	1426.538164974879	675.823582778405	736.828656748112	1488.645128012796	495.964141882807	814.152282318108	935.528360166890	630.006521142211	813.539612727855	722.996051379860	602.836655479645	711.121627355862	628.476099475588	665.479036956081	769.257080556868	563.665945985748	583.913161654014	749.162517864391	477.722834799361	587.112198789614	858.468926468996	764.789588859153	387.186732136261	801.691504313856	635.994316689459	315.703085028361	905.295066278019	576.908932162627	374.598294832442	926.521055138827	506.647265258575	373.889961901390	906.792043037280	433.105610130741	365.571233538483	830.320153587451	307.869988685130	317.869365139248	908.431062925923	203.834443394816	376.158014009302	710.836711252547	393.704330675493	594.201851420473	626.936586250785	298.722008652453	655.058915255164	656.692913440379	200.722589578298	589.655753668487	506.724936213510	42.825391501455	553.374733957238	677.768069614115	96.355305102177	593.926699215409	587.875491828186	35.703240006277	630.437571844935	796.077734219528	43.506859946968	625.000180149526	806.414964615515	37.737003318268	417.584939699090	879.531647801509	35.878291555055	336.175699338998	959.997185530418	101.684470322950	358.266369958025	1088.985547386544	55.652785956119	329.996178023682	601.854983990268	1092.968716977500	248.604879346430	584.214370216928	833.516883967576	252.949110136734	905.046279281283	1105.106577651632	783.019149847109	1159.047951517299	1099.120448136098	750.150572091025	
